{
  "accessors": [
    {
      "bufferView": 2,
      "componentType": 5126,
      "count": 101,
      "max": [
        0.081059001386165619,
        0.29023700952529907,
        0.016974000260233879
      ],
      "min": [
        -0.081059001386165619,
        0.18988299369812012,
        -0.43356001377105713
      ],
      "type": "VEC3"
    },
    {
      "bufferView": 2,
      "byteOffset": 1212,
      "componentType": 5126,
      "count": 101,
      "max": [
        0.98864579200744629,
        1,
        0.4612739086151123
      ],
      "min": [
        -0.98864579200744629,
        0.15025198459625244,
        0
      ],
      "type": "VEC3"
    },
    {
      "bufferView": 3,
      "componentType": 5126,
      "count": 101,
      "max": [
        0.99999749660491943,
        0.98864036798477173,
        0.35031235218048096,
        1
      ],
      "min": [
        0.15025825798511505,
        -0.98860210180282593,
        -0.35635805130004883,
        1
      ],
      "type": "VEC4"
    },
    {
      "bufferView": 1,
      "componentType": 5126,
      "count": 101,
      "max": [
        -2.0850598812103271,
        0.84200501441955566
      ],
      "min": [
        -2.5922820568084717,
        -0.0022660000249743462
      ],
      "type": "VEC2"
    },
    {
      "bufferView": 0,
      "componentType": 5125,
      "count": 486,
      "max": [
        100
      ],
      "min": [
        0
      ],
      "type": "SCALAR"
    },
    {
      "bufferView": 2,
      "byteOffset": 2424,
      "componentType": 5126,
      "count": 19542,
      "max": [
        0.94116222858428955,
        0.36224907636642456,
        0.94382768869400024
      ],
      "min": [
        -0.94116222858428955,
        -0.18505501747131348,
        -1.0582160949707031
      ],
      "type": "VEC3"
    },
    {
      "bufferView": 2,
      "byteOffset": 236928,
      "componentType": 5126,
      "count": 19542,
      "max": [
        1,
        1,
        1
      ],
      "min": [
        -1,
        -1,
        -1
      ],
      "type": "VEC3"
    },
    {
      "bufferView": 3,
      "byteOffset": 1616,
      "componentType": 5126,
      "count": 19542,
      "max": [
        1,
        1,
        1,
        1
      ],
      "min": [
        -1,
        -1,
        -1,
        -1
      ],
      "type": "VEC4"
    },
    {
      "bufferView": 1,
      "byteOffset": 808,
      "componentType": 5126,
      "count": 19542,
      "max": [
        0.99961435794830322,
        0.99979960918426514
      ],
      "min": [
        0.00040603755041956902,
        0.0016620680689811707
      ],
      "type": "VEC2"
    },
    {
      "bufferView": 1,
      "byteOffset": 157144,
      "componentType": 5126,
      "count": 19542,
      "max": [
        0.9958338737487793,
        0.99328327178955078
      ],
      "min": [
        0,
        0
      ],
      "type": "VEC2"
    },
    {
      "bufferView": 1,
      "byteOffset": 313480,
      "componentType": 5126,
      "count": 19542,
      "max": [
        0.99641132354736328,
        0.99856925010681152
      ],
      "min": [
        0.0020816680043935776,
        0.0038897097110748291
      ],
      "type": "VEC2"
    },
    {
      "bufferView": 0,
      "byteOffset": 1944,
      "componentType": 5125,
      "count": 44241,
      "max": [
        19541
      ],
      "min": [
        0
      ],
      "type": "SCALAR"
    },
    {
      "bufferView": 2,
      "byteOffset": 471432,
      "componentType": 5126,
      "count": 5490,
      "max": [
        0.86138248443603516,
        0.0060589760541915894,
        0.071249961853027344
      ],
      "min": [
        -0.86004877090454102,
        -0.110334113240242,
        -0.38548362255096436
      ],
      "type": "VEC3"
    },
    {
      "bufferView": 2,
      "byteOffset": 537312,
      "componentType": 5126,
      "count": 5490,
      "max": [
        0.99971431493759155,
        0.99694722890853882,
        1
      ],
      "min": [
        -0.99971431493759155,
        -0.99694734811782837,
        -1
      ],
      "type": "VEC3"
    },
    {
      "bufferView": 3,
      "byteOffset": 314288,
      "componentType": 5126,
      "count": 5490,
      "max": [
        0.99990969896316528,
        0.99951827526092529,
        1,
        1
      ],
      "min": [
        -0.99990981817245483,
        -0.99185627698898315,
        -1,
        -1
      ],
      "type": "VEC4"
    },
    {
      "bufferView": 1,
      "byteOffset": 469816,
      "componentType": 5126,
      "count": 5490,
      "max": [
        0.98405098915100098,
        0.98573797941207886
      ],
      "min": [
        0.018974000588059425,
        0.018621999770402908
      ],
      "type": "VEC2"
    },
    {
      "bufferView": 0,
      "byteOffset": 178908,
      "componentType": 5125,
      "count": 13404,
      "max": [
        5489
      ],
      "min": [
        0
      ],
      "type": "SCALAR"
    }
  ],
  "asset": {
    "extras": {
      "author": "Star Conflict (https://sketchfab.com/star_conflict)",
      "license": "CC-BY-4.0 (http://creativecommons.org/licenses/by/4.0/)",
      "source": "https://sketchfab.com/models/ecc16e103e79448faf9730f172a1d7e8",
      "title": "AJF-12 \"Dvergr\""
    },
    "generator": "Sketchfab-3.41.2",
    "version": "2.0"
  },
  "bufferViews": [
    {
      "buffer": 0,
      "byteLength": 232524,
      "byteOffset": 0,
      "name": "floatBufferViews",
      "target": 34963
    },
    {
      "buffer": 0,
      "byteLength": 513736,
      "byteOffset": 232524,
      "byteStride": 8,
      "name": "floatBufferViews",
      "target": 34962
    },
    {
      "buffer": 0,
      "byteLength": 603192,
      "byteOffset": 746260,
      "byteStride": 12,
      "name": "floatBufferViews",
      "target": 34962
    },
    {
      "buffer": 0,
      "byteLength": 402128,
      "byteOffset": 1349452,
      "byteStride": 16,
      "name": "floatBufferViews",
      "target": 34962
    }
  ],
  "buffers": [
    {
      "byteLength": 1751580,
      "uri": "scene.bin"
    }
  ],
  "images": [
    {
      "uri": "textures/lambert11_baseColor.png"
    },
    {
      "uri": "textures/lambert11_metallicRoughness.png"
    },
    {
      "uri": "textures/lambert11_emissive.png"
    },
    {
      "uri": "textures/lambert11_normal.png"
    },
    {
      "uri": "textures/lambert3_baseColor.png"
    },
    {
      "uri": "textures/lambert3_metallicRoughness.png"
    },
    {
      "uri": "textures/lambert3_emissive.png"
    },
    {
      "uri": "textures/lambert3_normal.png"
    }
  ],
  "materials": [
    {
      "alphaMode": "BLEND",
      "doubleSided": true,
      "name": "blinn1",
      "pbrMetallicRoughness": {
        "baseColorFactor": [
          0.017302741600000001,
          0.028100601900000001,
          0.034218421399999997,
          0.52000000000000002
        ],
        "metallicFactor": 1,
        "roughnessFactor": 0
      }
    },
    {
      "doubleSided": true,
      "emissiveFactor": [
        1,
        1,
        1
      ],
      "emissiveTexture": {
        "index": 2,
        "texCoord": 0
      },
      "name": "lambert11",
      "normalTexture": {
        "index": 3,
        "scale": 1,
        "texCoord": 0
      },
      "occlusionTexture": {
        "index": 1,
        "strength": 1,
        "texCoord": 0
      },
      "pbrMetallicRoughness": {
        "baseColorFactor": [
          1,
          1,
          1,
          1
        ],
        "baseColorTexture": {
          "index": 0,
          "texCoord": 0
        },
        "metallicFactor": 0.64000000000000001,
        "metallicRoughnessTexture": {
          "index": 1,
          "texCoord": 0
        },
        "roughnessFactor": 1
      }
    },
    {
      "doubleSided": true,
      "emissiveFactor": [
        1,
        1,
        1
      ],
      "emissiveTexture": {
        "index": 6,
        "texCoord": 0
      },
      "name": "lambert3",
      "normalTexture": {
        "index": 7,
        "scale": 1,
        "texCoord": 0
      },
      "occlusionTexture": {
        "index": 5,
        "strength": 1,
        "texCoord": 0
      },
      "pbrMetallicRoughness": {
        "baseColorFactor": [
          1,
          1,
          1,
          1
        ],
        "baseColorTexture": {
          "index": 4,
          "texCoord": 0
        },
        "metallicFactor": 0.85999999999999999,
        "metallicRoughnessTexture": {
          "index": 5,
          "texCoord": 0
        },
        "roughnessFactor": 1
      }
    }
  ],
  "meshes": [
    {
      "primitives": [
        {
          "attributes": {
            "NORMAL": 1,
            "POSITION": 0,
            "TANGENT": 2,
            "TEXCOORD_0": 3
          },
          "indices": 4,
          "material": 0,
          "mode": 4
        }
      ]
    },
    {
      "primitives": [
        {
          "attributes": {
            "NORMAL": 6,
            "POSITION": 5,
            "TANGENT": 7,
            "TEXCOORD_0": 8,
            "TEXCOORD_1": 9,
            "TEXCOORD_2": 10
          },
          "indices": 11,
          "material": 1,
          "mode": 4
        }
      ]
    },
    {
      "primitives": [
        {
          "attributes": {
            "NORMAL": 13,
            "POSITION": 12,
            "TANGENT": 14,
            "TEXCOORD_0": 15
          },
          "indices": 16,
          "material": 2,
          "mode": 4
        }
      ]
    }
  ],
  "nodes": [
    {
      "children": [
        1
      ],
      "name": "RootNode (gltf orientation matrix)",
      "rotation": [
        -0.70710678118654746,
        -0,
        -0,
        0.70710678118654757
      ]
    },
    {
      "children": [
        2
      ],
      "name": "RootNode (model correction matrix)"
    },
    {
      "children": [
        3
      ],
      "matrix": [
        1,
        0,
        0,
        0,
        0,
        0,
        1,
        0,
        0,
        -1,
        0,
        0,
        0,
        0,
        0,
        1
      ],
      "name": "f34a705e34c342099d68d8294cf16086.fbx"
    },
    {
      "children": [
        4,
        5,
        6
      ],
      "name": "RootNode"
    },
    {
      "mesh": 0,
      "name": ""
    },
    {
      "mesh": 1,
      "name": ""
    },
    {
      "mesh": 2,
      "name": ""
    }
  ],
  "samplers": [
    {
      "magFilter": 9729,
      "minFilter": 9987,
      "wrapS": 10497,
      "wrapT": 10497
    }
  ],
  "scene": 0,
  "scenes": [
    {
      "name": "OSG_Scene",
      "nodes": [
        0
      ]
    }
  ],
  "textures": [
    {
      "sampler": 0,
      "source": 0
    },
    {
      "sampler": 0,
      "source": 1
    },
    {
      "sampler": 0,
      "source": 2
    },
    {
      "sampler": 0,
      "source": 3
    },
    {
      "sampler": 0,
      "source": 4
    },
    {
      "sampler": 0,
      "source": 5
    },
    {
      "sampler": 0,
      "source": 6
    },
    {
      "sampler": 0,
      "source": 7
    }
  ]
}

